<?xml version="1.0" encoding="utf-8"?>
<!-- Generator: Adobe Illustrator 16.0.0, SVG Export Plug-In . SVG Version: 6.00 Build 0)  -->
<!DOCTYPE svg PUBLIC "-//W3C//DTD SVG 1.1//EN" "http://www.w3.org/Graphics/SVG/1.1/DTD/svg11.dtd">
<svg version="1.1" id="Layer_1" xmlns="http://www.w3.org/2000/svg" xmlns:xlink="http://www.w3.org/1999/xlink" x="0px" y="0px"
	 width="864.053px" height="84.113px" viewBox="0 0 864.053 84.113" enable-background="new 0 0 864.053 84.113"
	 xml:space="preserve">
<g>
	<g>
		<path fill="#E51837" d="M113.425,56.152v-8.597H98.894v-5.371v-6.35c-10.492-0.126-18.96-8.667-18.96-19.189
			c0-7.121,3.88-13.33,9.639-16.646H56.349C33.052,0,14.165,18.887,14.165,42.184v5.371H0v8.597h14.165v19.361H0v8.6h113.425v-8.6
			H98.894V56.152H113.425z"/>
		<circle fill="#E51837" cx="98.677" cy="14.839" r="14.747"/>
	</g>
</g>
<g>
	<path d="M164.124,15.485v20.006h24.725v8.117h-24.725v34.916h-8.871V7.369h34.445v8.116H164.124z"/>
	<path d="M215.839,60.688l-8.116,17.836h-9.531L232.165,4.35l33.973,74.174h-9.531l-8.116-17.836H215.839z M232.165,23.79
		L219.52,52.573h25.291L232.165,23.79z"/>
	<path d="M327.666,78.524h-10.758l-20.95-30.104h-3.68v30.104h-8.871V7.369h10.758c3.145,0,6.354,0.158,9.625,0.472
		c3.271,0.315,6.323,1.259,9.154,2.831c3.02,1.762,5.332,4.185,6.936,7.266c1.604,3.083,2.406,6.323,2.406,9.72
		c0,2.581-0.41,5.001-1.227,7.267c-0.818,2.265-1.967,4.279-3.445,6.04c-1.479,1.762-3.272,3.225-5.379,4.388
		c-2.108,1.165-4.452,1.903-7.031,2.218L327.666,78.524z M292.277,41.059h2.831c2.265,0,4.513-0.142,6.747-0.424
		c2.232-0.283,4.247-0.897,6.04-1.84c1.793-0.944,3.255-2.265,4.388-3.964c1.132-1.698,1.698-3.963,1.698-6.794
		c0-2.768-0.599-4.985-1.793-6.653c-1.196-1.667-2.722-2.957-4.577-3.869c-1.856-0.912-3.933-1.51-6.229-1.793
		c-2.297-0.283-4.546-0.425-6.748-0.425h-2.359V41.059z"/>
	<path d="M345.124,3.972l53.413,55.961V7.369h8.871V81.45l-53.413-55.961v53.036h-8.871V3.972z"/>
	<path d="M462.99,20.865c-1.321-2.202-2.878-3.869-4.671-5.002c-1.793-1.132-4.043-1.698-6.748-1.698
		c-1.448,0-2.878,0.236-4.294,0.708c-1.415,0.472-2.688,1.149-3.821,2.029c-1.132,0.882-2.045,1.935-2.736,3.162
		c-0.693,1.227-1.038,2.627-1.038,4.199c0,1.385,0.313,2.611,0.943,3.681c0.628,1.07,1.416,2.014,2.359,2.831
		c0.943,0.818,1.996,1.526,3.161,2.123c1.163,0.599,2.312,1.118,3.444,1.557l5.096,1.982c2.516,1.007,4.86,2.124,7.031,3.35
		c2.17,1.227,4.041,2.689,5.614,4.388c1.572,1.698,2.799,3.666,3.681,5.898c0.881,2.233,1.321,4.829,1.321,7.785
		c0,3.209-0.582,6.182-1.746,8.918c-1.165,2.736-2.769,5.081-4.812,7.03c-2.045,1.951-4.451,3.478-7.22,4.577
		s-5.756,1.651-8.965,1.651c-2.895,0-5.6-0.504-8.115-1.51c-2.518-1.006-4.735-2.391-6.653-4.152
		c-1.92-1.761-3.508-3.869-4.766-6.322c-1.259-2.454-2.076-5.097-2.454-7.928l8.965-1.887c0,1.95,0.345,3.76,1.038,5.426
		c0.691,1.668,1.666,3.1,2.925,4.294c1.258,1.195,2.737,2.123,4.436,2.784c1.698,0.66,3.491,0.99,5.379,0.99
		s3.634-0.377,5.237-1.132c1.604-0.755,2.988-1.761,4.152-3.021c1.164-1.258,2.076-2.72,2.737-4.388
		c0.66-1.666,0.99-3.444,0.99-5.332s-0.346-3.539-1.038-4.954c-0.692-1.416-1.62-2.643-2.783-3.681
		c-1.165-1.038-2.486-1.949-3.964-2.736c-1.479-0.786-2.973-1.494-4.482-2.124l-4.907-2.076c-2.014-0.88-3.963-1.84-5.851-2.878
		s-3.539-2.265-4.955-3.68c-1.415-1.416-2.548-3.067-3.397-4.955c-0.85-1.887-1.274-4.058-1.274-6.512
		c0-2.893,0.581-5.473,1.745-7.738c1.164-2.265,2.721-4.183,4.672-5.756c1.949-1.572,4.184-2.784,6.7-3.633
		c2.516-0.849,5.127-1.274,7.833-1.274c3.963,0,7.517,0.929,10.663,2.784c3.146,1.856,5.693,4.515,7.645,7.975L462.99,20.865z"/>
	<path d="M514.987,58.329L535.088,5.86l20.101,52.469l19.912-50.959h9.626l-29.538,73.986l-20.101-52.187l-20.101,52.187
		L485.449,7.369h9.626L514.987,58.329z"/>
	<path d="M633.893,5.86c5.096,0,9.908,0.976,14.438,2.925c4.529,1.951,8.477,4.609,11.843,7.975
		c3.365,3.366,6.04,7.299,8.021,11.796c1.982,4.499,2.973,9.295,2.973,14.392c0,5.284-0.976,10.191-2.925,14.722
		c-1.951,4.529-4.609,8.446-7.975,11.749c-3.366,3.303-7.313,5.897-11.844,7.785c-4.529,1.888-9.375,2.831-14.532,2.831
		c-5.16,0-10.004-0.943-14.533-2.831s-8.479-4.482-11.844-7.785c-3.366-3.303-6.024-7.22-7.974-11.749
		c-1.951-4.53-2.926-9.438-2.926-14.722c0-5.096,0.991-9.893,2.973-14.392c1.981-4.497,4.655-8.43,8.021-11.796
		c3.365-3.365,7.313-6.023,11.844-7.975C623.983,6.836,628.796,5.86,633.893,5.86z M633.893,71.729c3.836,0,7.47-0.738,10.899-2.218
		c3.428-1.478,6.448-3.506,9.06-6.087c2.609-2.578,4.671-5.614,6.181-9.106c1.511-3.491,2.266-7.281,2.266-11.371
		c0-3.9-0.693-7.597-2.076-11.088c-1.385-3.492-3.336-6.542-5.852-9.154c-2.517-2.61-5.521-4.686-9.012-6.228
		c-3.492-1.541-7.313-2.312-11.466-2.312s-7.975,0.771-11.466,2.312c-3.492,1.542-6.497,3.618-9.013,6.228
		c-2.517,2.612-4.468,5.663-5.851,9.154c-1.385,3.491-2.076,7.188-2.076,11.088c0,4.09,0.755,7.88,2.265,11.371
		c1.51,3.492,3.569,6.528,6.181,9.106c2.61,2.581,5.63,4.609,9.06,6.087C626.421,70.991,630.054,71.729,633.893,71.729z"/>
	<path d="M735.338,78.524H724.58l-20.95-30.104h-3.681v30.104h-8.87V7.369h10.758c3.146,0,6.354,0.158,9.626,0.472
		c3.271,0.315,6.322,1.259,9.153,2.831c3.021,1.762,5.332,4.185,6.937,7.266c1.604,3.083,2.406,6.323,2.406,9.72
		c0,2.581-0.41,5.001-1.227,7.267c-0.818,2.265-1.967,4.279-3.444,6.04c-1.479,1.762-3.272,3.225-5.379,4.388
		c-2.109,1.165-4.452,1.903-7.031,2.218L735.338,78.524z M699.949,41.059h2.831c2.266,0,4.514-0.142,6.748-0.424
		c2.232-0.283,4.246-0.897,6.039-1.84c1.793-0.944,3.256-2.265,4.389-3.964c1.132-1.698,1.698-3.963,1.698-6.794
		c0-2.768-0.599-4.985-1.793-6.653c-1.195-1.667-2.722-2.957-4.577-3.869c-1.856-0.912-3.933-1.51-6.228-1.793
		c-2.298-0.283-4.547-0.425-6.748-0.425h-2.359V41.059z"/>
	<path d="M770.916,78.524h-8.87V15.485h-16.893V7.369h42.655v8.116h-16.893V78.524z"/>
	<path d="M848.11,36.058V7.369h8.871v71.155h-8.871V44.362h-33.879v34.162h-8.87V7.369h8.87v28.688H848.11z"/>
</g>
</svg>
